PathFileType	4	(X/Y/Z)	0_coords_data.trc
DataRate	CameraRate	NumFrames	NumMarkers	Units	OrigDataRate	OrigDataStartFrame	OrigNumFrames
30.0	30.0	8	21	m	30.0	69	78
Frame#	Time	THUMB_TIP	THUMB_IP	THUMB_MCP	THUMB_CMC	INDEX_TIP	INDEX_DIP	INDEX_PIP	INDEX_MCP	MIDDLE_TIP	MIDDLE_DIP	MIDDLE_PIP	MIDDLE_MCP	RING_TIP	RING_DIP	RING_PIP	RING_MCP	PINKY_TIP	PINKY_DIP	PINKY_PIP	PINKY_MCP	WRIST
X1	Y1	Z1	X2	Y2	Z2	X3	Y3	Z3	X4	Y4	Z4	X5	Y5	Z5	X6	Y6	Z6	X7	Y7	Z7	X8	Y8	Z8	X9	Y9	Z9	X10	Y10	Z10	X11	Y11	Z11	X12	Y12	Z12	X13	Y13	Z13	X14	Y14	Z14	X15	Y15	Z15	X16	Y16	Z16	X17	Y17	Z17	X18	Y18	Z18	X19	Y19	Z19	X20	Y20	Z20	X21	Y21	Z21
67	2.266666666666657	0.45101819630762874	-0.020543747141276825	-0.171864344439556	0.4598928481933229	-0.025986057031400778	-0.15137967170681244	0.45168173866096795	-0.028391297999859177	-0.1214528861104388	0.4657762485368183	-0.03118812222862155	-0.07922241647543515	0.5344274663961843	0.014390630042690922	-0.19822085474289225	0.5231664545075851	0.012017350095633428	-0.18423667963179902	0.508173916381684	0.00781944677604307	-0.1644981072096917	0.4838305953470411	0.0008851220565814222	-0.13024969183482538	0.5656670990402526	0.025942253407845395	-0.18002002904507225	0.5531292491598209	0.020198365190254197	-0.16828077572471262	0.532467275047525	0.013244129158256457	-0.14893831008575953	0.501935624274191	0.005624515030236088	-0.117222262056485	0.5806155074097273	0.02759227343076498	-0.15217026941382894	0.5671469376271224	0.022580483160002718	-0.14128543655829107	0.5477952888316566	0.01709467937623088	-0.1266021254622574	0.5175038933603828	0.003107678582839668	-0.10376540058305089	0.5894942277657264	0.011660232367003975	-0.11606694577416238	0.5749834016200601	0.011341888214273732	-0.10699310526582906	0.5564868959342588	0.010412134379635063	-0.09710235937777306	0.5250124339988557	-0.0026015370285397132	-0.08523281627970425	0.4622830810018608	-0.023011742144276925	-0.051989820119430985
68	2.29999999999999	0.4511468815771247	-0.020366530372387892	-0.17186577372487222	0.4599807567809202	-0.02582845851032567	-0.15136870100948752	0.45170363442340233	-0.028289846416495346	-0.12146467427304214	0.46576724284907545	-0.03116864191840185	-0.07922941110933568	0.5346242799020374	0.014289113436465217	-0.19807099378057902	0.5233155639859596	0.011976708757659438	-0.18411514450757233	0.5082643884084974	0.007856173644133935	-0.16440491525688605	0.48381741269862355	0.0010326963113258536	-0.1302081079537255	0.5658014113501288	0.025752442486989824	-0.17993959312429242	0.5532329187626288	0.020079583087811992	-0.16819856845371461	0.5325234029901021	0.013244157076816587	-0.1488645968566611	0.5019480749235629	0.0057437500149591925	-0.11716221321552239	0.5807701837417957	0.02734691220480223	-0.1520900497373342	0.5672730238352923	0.0224194165329632	-0.1412021453998465	0.5478889144136878	0.01705312819190341	-0.12651748570437282	0.517526958597485	0.0031878074940172585	-0.1037002695078309	0.5895822379913597	0.01140930301194587	-0.11595680452762219	0.5750766375299015	0.01118585115522408	-0.10687178253974161	0.5565748968394234	0.01033126306040344	-0.09698404823857337	0.5250373776387539	-0.0025847715244149416	-0.08517539106380606	0.4622830810018609	-0.023011742144276925	-0.051989820119430985
70	2.333333333333334	0.4513158871612921	-0.020241487809086967	-0.17186604057456512	0.46012095372345596	-0.025715626578283746	-0.15135983157408328	0.45176334182625355	-0.02822892897212992	-0.12148252188172926	0.4657736223141873	-0.031154699720630674	-0.07923276559631809	0.5348084745246935	0.014244801289381326	-0.19793286217216705	0.5234657181228336	0.01197295248271768	-0.18399799295111835	0.5083660305850745	0.007905989122472423	-0.16431375869401654	0.4838287731094226	0.0011551330757304523	-0.13016723570543476	0.5659286783846296	0.02563074954360045	-0.179844654212797	0.5533365064281847	0.020011588025635296	-0.16810317946494935	0.5325859981750654	0.013261303755768505	-0.14878325142385096	0.501964939296512	0.005854282612356321	-0.1171030571072561	0.5809161628426018	0.027204165148342896	-0.1519736835321716	0.5673965802314054	0.022331295003545804	-0.14108901437913884	0.547985537730604	0.017035165088705617	-0.1264144644386051	0.5175544784395157	0.0032656166656197527	-0.10363133470086777	0.5896741951562798	0.011260173915016436	-0.11579442996153028	0.5751642709309281	0.011104974583246885	-0.10671489185973404	0.5566534600132015	0.010302231829402375	-0.09683979681009913	0.525067048295902	-0.0025613014145999813	-0.08510474000130203	0.4622830810018608	-0.023011742144276925	-0.051989820119430985
71	2.3666666666666676	0.45151144591462844	-0.020146049823354106	-0.17187302901518398	0.460280433103359	-0.02562590666309883	-0.1513528917666228	0.45183737527443957	-0.02818522565026904	-0.12150352559547206	0.4657845348411981	-0.03114229983425143	-0.07923506865309254	0.5350038354182924	0.014186745126582578	-0.19779388185296098	0.5236269728436885	0.0119558217550233	-0.18388022026196305	0.5084766447636071	0.007945913994897635	-0.16422321052443745	0.48385104050608685	0.0012691626583565263	-0.130125751666892	0.5660622456377746	0.02550270314632641	-0.17974704445895429	0.5534463459680671	0.019936400427243983	-0.16800586268012946	0.5326559566223085	0.013269342111715487	-0.14869991555834577	0.5019889367576281	0.005959753775760301	-0.11704155596758081	0.5810637150177419	0.02705385548076389	-0.1518593231214148	0.5675225546072804	0.02223610917846086	-0.14097693848822002	0.5480867386818641	0.01700758676773695	-0.12631093727064568	0.51758721099951	0.003336117606371425	-0.10356032022136197	0.5897689646514861	0.01110387942310409	-0.11563087230598507	0.5752543693183488	0.011016123159347968	-0.10655790029272266	0.5567349667970422	0.010265242143970732	-0.09669484159095243	0.5251005703181353	-0.002545110430304587	-0.08503108244828839	0.4622830810018608	-0.023011742144276925	-0.051989820119430985
72	2.400000000000001	0.45170441637890624	-0.020083501192031394	-0.17188436750617003	0.46043743810992777	-0.025564544824221325	-0.15134921491001102	0.4519164628892358	-0.02816259180060232	-0.12152534639506368	0.46579807625247516	-0.031132583029660488	-0.07923622294076571	0.5352001061988372	0.01408334878109807	-0.1976666457709067	0.5237897016416437	0.011898110852294308	-0.183773215559627	0.5085877052994044	0.00795528280100477	-0.16414254447663784	0.48387902531481974	0.0013631610168383101	-0.13008874648284424	0.5661910824898865	0.025348398576952813	-0.17966401382165542	0.5535524302961387	0.01983565498742834	-0.1679220323516637	0.5327258671111323	0.013252518084275411	-0.1486262783001816	0.5020163364901756	0.006049797454053096	-0.11698463697796996	0.581200045112572	0.02688425892373203	-0.1517689618635319	0.5676400367378791	0.0221225026831402	-0.1408854031448294	0.548183742801887	0.016960090490363622	-0.12622313505192678	0.5176214253877122	0.0033909167819167196	-0.10349555020123874	0.5898603054121921	0.010939575246894373	-0.11548088881287139	0.5753410058506576	0.010916384163305093	-0.1064150517077792	0.5568143089365288	0.010217509041395734	-0.09656187485886458	0.5251349623326338	-0.0025401408970572303	-0.08496252928257542	0.462283081001861	-0.023011742144276925	-0.051989820119430985
73	2.433333333333334	0.4518656837504351	-0.020057086677160885	-0.1718978463991579	0.46057029802457916	-0.025536765079858692	-0.15135027196952316	0.4519913189754725	-0.02816488857909516	-0.12154567357686324	0.4658123394795227	-0.031126692065038486	-0.07923613431752735	0.5353869551647759	0.01390297871162205	-0.19756369868920048	0.5239442116642874	0.01177259067940728	-0.18368835840457243	0.5086906548772259	0.007913443642969309	-0.16408106837012232	0.48390753735874337	0.001425497110336349	-0.13006137216550018	0.5663041462226989	0.025147900154243064	-0.1796128301613345	0.553644749433444	0.019690959016097076	-0.16786713025255884	0.5327883166395889	0.013195064351754437	-0.14857407156231556	0.5020434189633328	0.006114015709603682	-0.116939313178474	0.5813123988284771	0.026683631338684233	-0.1517246536276613	0.5677381566050833	0.021979106834131068	-0.14083395129738463	0.5482678087138353	0.016882373033658804	-0.12616736217240726	0.5176534044828045	0.003421602741087826	-0.10344541791779549	0.5899420753035387	0.010766425683006009	-0.11535929030305675	0.5754183290230827	0.010802824928822674	-0.10630062212965269	0.5568864439512708	0.010156248848970595	-0.09645363304373805	0.5251672519496345	-0.0025503312096840647	-0.08490724256981319	0.462283081001861	-0.023011742144276925	-0.051989820119430985
74	2.466666666666667	0.45196612082164833	-0.020070029488846397	-0.17191135042054917	0.4606573731651882	-0.02554778731174956	-0.15135760862168107	0.4520526460933465	-0.02819598416133784	-0.12156221089879532	0.46582541525512666	-0.031125770763408722	-0.07923471179853375	0.5355539095289066	0.013613937148765354	-0.19749742145593685	0.5240806922701305	0.011552000228007397	-0.18363691273988547	0.5087768787054894	0.007799772091988566	-0.1640480407102362	0.4839313798279097	0.0014445373652837157	-0.13004880143797198	0.5663903371689153	0.024881243274168963	-0.1796107133116402	0.5537132475261639	0.019483893868808333	-0.1678565643596277	0.5328358611594858	0.013081207173944676	-0.1485550128265548	0.5020664615287587	0.006141983631582026	-0.11691264970377713	0.5813879955927381	0.026440201026952548	-0.15174844349308725	0.5678060270725964	0.021794536162430433	-0.14084211830609472	0.5483301831052486	0.016764128004819745	-0.12615993609337955	0.5176794265526705	0.0034197552107353424	-0.10341835146329936	0.5900081921191057	0.010583607977457499	-0.11528092789978722	0.5754805270567283	0.010672501806562429	-0.10622890902428067	0.5569463645077067	0.010078688443300066	-0.09638288326278394	0.5251944660375147	-0.002579604742825148	-0.08487340855049913	0.4622830810018608	-0.023011742144276925	-0.051989820119430985
75	2.5	0.4519765366503965	-0.020125570664608183	-0.17192271232738437	0.4606769592294343	-0.02560285401836404	-0.1513727241519902	0.4520911416600587	-0.028259755356102256	-0.12157264677043084	0.465835392976808	-0.031130962374490423	-0.07923186588486375	0.5356902521899631	0.013184427978575664	-0.19747984582615952	0.5241891351341038	0.011209039687293587	-0.18362985854941127	0.5088376632343884	0.007593689012353577	-0.16405254047441797	0.4839453397195139	0.0014086484784975317	-0.13005616423186261	0.5664384265974282	0.024528433750263257	-0.17967472841570958	0.553747755145963	0.01919601459158704	-0.16790560933112442	0.532860980526101	0.012895175416739124	-0.14858071291039826	0.502081717350055	0.006123257022606965	-0.11691170596981182	0.5814139242837411	0.02614215497987804	-0.1518622578318859	0.567832654860365	0.02155737934784485	-0.14092932806655817	0.5483620310666182	0.016595040704532216	-0.12621708883279542	0.5176957377514838	0.0033769577707938314	-0.10342275682093405	0.5900525733963287	0.010390315724560284	-0.11526066818512382	0.575521773256052	0.010522470785295668	-0.10621421129177294	0.5569890516957019	0.0099820765333829	-0.09636239802623442	0.525213614890067	-0.002631856317321546	-0.08486919286627043	0.462283081001861	-0.023011742144276925	-0.051989820119430985
